<svg xmlns="http://www.w3.org/2000/svg" width="20" height="38" viewBox="0 0 20 38">
    <path fill="#FF9984" fill-rule="evenodd" d="M13.175 34.531a996.022 996.022 0 0 1-.217-8.26 1.08 1.08 0 0 0 .385-.098c.518-.224.86-.896 1.295-1.82l.14-.301c.41-.455.846-.887 1.302-1.295-.098.378-.175.75-.245 1.078-.196.973-.294 8.652-.273 11.347-.312.38-.764.617-1.253.658-.455 0-1.071-.994-1.134-1.309zm-1.75-8.456c-.253.024-.51.024-.763 0-.441-.259-1.54-1.463-1.554-1.869a56.46 56.46 0 0 1 0-4.354c0-.14.063-.308.28-.308a4.03 4.03 0 0 1 1.253.378 7.887 7.887 0 0 0-.7 3.234v.154a2.803 2.803 0 0 0 1.197 2.31c.112.07.245.161.385.245v.14a.658.658 0 0 0-.098.07zm-3.458-.623c-.411.389-.986.55-1.54.434-.7-.105-.875-1.008-.896-1.148.063-1.267.126-2.569.294-3.83 0-.146.224-.622.574-.7.435-.052.878.011 1.28.183 0 .637-.048 1.267-.048 1.904s0 1.323.042 1.974c.031.327.134.642.3.924a.804.804 0 0 0-.006.259zm-5.558-1.197a1.178 1.178 0 0 1 0-1.022 14.97 14.97 0 0 1 1.96-2.4.235.235 0 0 1 .07 0c-.154 1.19-.217 2.393-.28 3.569a.577.577 0 0 0-.098.196 1.134 1.134 0 0 1-1.638-.336l-.014-.007zm-.05-5.061c-.216-1.848-.44-3.752-.125-4.9.344-.701.762-1.363 1.246-1.974.644-.882.847-1.176.868-1.505.05-.805.027-1.614-.07-2.415h8.953a7.124 7.124 0 0 0 1.232 2.989c.348.424.732.818 1.148 1.176 1.183 1.106 2.975 2.8 2.975 4.305a3.879 3.879 0 0 1-.665 2.1 28.565 28.565 0 0 1-2.261 2.24 14.988 14.988 0 0 0-2.1 2.156l-.19.392a6.673 6.673 0 0 1-.608 1.12 3.296 3.296 0 0 1-.882-.455h-.05l-.034-.035a1.506 1.506 0 0 1-.476-1.085 6.61 6.61 0 0 1 2.366-5.131.7.7 0 0 0 .1-.985l-.002-.002-.07-.056v-2.184a.7.7 0 1 0-1.4 0v2.387a.68.68 0 0 0-.238 0 2.578 2.578 0 0 1-2.485-.609 3.963 3.963 0 0 1-1.281-3.542.7.7 0 0 0-1.33-.16 4.57 4.57 0 0 0-.07.811 5.402 5.402 0 0 0 1.813 4.018c.152.13.31.25.476.364a1.585 1.585 0 0 0-1.225.819 3.691 3.691 0 0 0-1.827-.154 1.989 1.989 0 0 0-1.12.7 1.718 1.718 0 0 0-1.211 0c-.491.304-.927.69-1.287 1.141l-.17-1.526zM2.529 1.4V7h11.97V1.4H2.528zm14.42 33.838c0-3.13.098-10.38.245-11.13.378-1.862.875-3.122 1.533-3.85a.774.774 0 0 0 .154-.238c.083-.09.16-.187.23-.287.57-.85.88-1.847.89-2.87 0-2.142-2.058-4.06-3.423-5.327a10.132 10.132 0 0 1-.966-.973 5.703 5.703 0 0 1-.931-2.212 1.4 1.4 0 0 0 1.246-1.4V1.4a1.4 1.4 0 0 0-1.4-1.4H2.556a1.4 1.4 0 0 0-1.4 1.4V7a1.4 1.4 0 0 0 1.4 1.4h.37c.102.735.13 1.479.085 2.219-.098.175-.385.58-.61.882a9.607 9.607 0 0 0-1.483 2.47 6.813 6.813 0 0 0-.238 1.85c.03 1.191.127 2.38.287 3.562.126 1.078.245 2.1.259 2.954a.684.684 0 0 0 0 .12 2.619 2.619 0 0 0-.154.286c-.134.334-.204.69-.203 1.05.01.397.121.784.322 1.127a2.602 2.602 0 0 0 1.98 1.246c.45.043.901-.042 1.303-.245.335.692.98 1.184 1.736 1.323a3.137 3.137 0 0 0 2.75-.833c.37.42.823.76 1.33.994.43.063.867.063 1.296 0 .056 2.373.119 4.74.189 7.112 0 .7 1.036 2.667 2.52 2.667a3.209 3.209 0 0 0 2.135-.938c.298-.255.484-.617.518-1.008z"/>
</svg>
