<svg xmlns="http://www.w3.org/2000/svg" xmlns:xlink="http://www.w3.org/1999/xlink" width="345" height="96" viewBox="0 0 345 96">
    <defs>
        <path id="a" d="M0 .308h70.474V62.28H0z"/>
    </defs>
    <g fill="none" fill-rule="evenodd">
        <path fill="#000" d="M318.614 10.59l-.104 5.177h-13.802v-1.05c.952 0 1.567-.138 1.841-.412.274-.275.41-.747.41-1.416V3.153c0-.448-.045-.798-.136-1.045-.092-.248-.304-.44-.635-.577-.33-.137-.825-.206-1.48-.206V.274h7.792v1.051c-.647 0-1.136.064-1.467.193-.332.13-.549.32-.652.567-.102.247-.153.604-.153 1.068v8.913c0 .7.032 1.204.101 1.508.07.304.256.534.562.69.304.156.802.234 1.495.234.876 0 1.644-.066 2.302-.199.66-.134 1.27-.487 1.83-1.063.558-.575.908-1.457 1.045-2.646h1.051zM344.038 15.608h-1.074a5.116 5.116 0 0 0-.788-1.76 9.06 9.06 0 0 1-1.987 1.554c-.747.434-1.757.65-3.03.65a7.716 7.716 0 0 1-3.877-1.015 7.616 7.616 0 0 1-2.851-2.84c-.709-1.216-1.064-2.584-1.064-4.107 0-1.082.193-2.115.578-3.098A7.866 7.866 0 0 1 331.59 2.4a7.707 7.707 0 0 1 2.548-1.76c.987-.427 2.067-.64 3.24-.64 1.934 0 3.535.632 4.798 1.897.168-.328.33-.805.49-1.43h1.029l.183 5.703h-1.097a6.978 6.978 0 0 0-1.074-2.582c-.517-.754-1.132-1.333-1.845-1.732-.712-.4-1.456-.599-2.233-.599-.869 0-1.65.238-2.343.714-.694.475-1.236 1.2-1.627 2.176-.393.975-.59 2.19-.59 3.645 0 1.417.165 2.595.492 3.536.328.941.733 1.652 1.217 2.132.484.48.97.805 1.457.976.488.17.945.258 1.372.258.936 0 1.78-.251 2.53-.754a6.283 6.283 0 0 0 1.844-1.903c.48-.766.8-1.525.96-2.28h1.097v5.85z"/>
        <g transform="translate(0 31.487)">
            <mask id="b" fill="#fff">
                <use xlink:href="#a"/>
            </mask>
            <path fill="#000" d="M52.833 48.707L29.616 25.26l11.288-10.42c4.387-4.114 7.388-6.81 9.004-8.09a21.782 21.782 0 0 1 5.325-3.107c1.934-.792 3.86-1.204 5.78-1.234V.308H37.66V2.41c4.388.12 6.582 1.447 6.582 3.975 0 1.676-2.194 4.48-6.582 8.41L18.738 31.842V15.754c0-5.149.16-8.408.48-9.78.32-1.371.952-2.307 1.897-2.81.943-.503 2.94-.754 5.987-.754h1.143V.308H.822V2.41c3.474 0 5.683.243 6.628.73.942.488 1.577 1.433 1.896 2.835.32 1.4.48 4.661.48 9.78v30.392c0 5.18-.144 8.479-.434 9.896-.291 1.415-.945 2.46-1.966 3.13-1.021.67-2.856 1.005-5.506 1.005H0v2.102h27.834v-2.102h-1.19c-2.804 0-4.7-.365-5.689-1.097-.99-.73-1.608-1.85-1.85-3.36-.246-1.507-.367-4.699-.367-9.574V34.86l4.434-3.885 17.503 17.642c4.418 4.417 6.628 7.267 6.628 8.546 0 .853-.428 1.57-1.28 2.148-.854.58-3.017.868-6.49.868H38.3v2.102h32.175v-2.102c-2.864 0-5.195-.563-6.993-1.691-1.798-1.127-5.347-4.388-10.648-9.78" mask="url(#b)"/>
        </g>
        <path fill="#000" d="M91.89 31.794l-.32 14.9h2.102c.64-3.93 1.56-6.857 2.765-8.776 1.204-1.92 2.491-3.069 3.863-3.45 1.37-.38 4.05-.572 8.043-.572h9.187v43.739c0 5.179-.146 8.477-.434 9.894-.292 1.417-.945 2.46-1.966 3.13-1.022.671-2.856 1.007-5.507 1.007h-3.199v2.102h30.894v-2.102h-3.016c-2.772 0-4.661-.367-5.666-1.098-1.006-.731-1.623-1.859-1.851-3.382-.23-1.522-.344-4.707-.344-9.551V33.896h9.964c3.382 0 5.774.206 7.176.618 1.401.41 2.711 1.523 3.93 3.336 1.219 1.813 2.178 4.76 2.879 8.843h1.966l-.32-14.899H91.89zM222.286 86.272c-1.66 2.254-3.412 3.717-5.256 4.388-1.843.67-4.67 1.005-8.477 1.005h-4.709c-3.564 0-5.887-.312-6.969-.936-1.082-.626-1.745-1.502-1.988-2.629-.244-1.127-.365-3.93-.365-8.408v-32.45c0-5.149.16-8.41.48-9.78.32-1.372.951-2.308 1.896-2.811.944-.504 2.94-.754 5.987-.754h2.743v-2.103h-29.753v2.103h1.371c3.138 0 5.172.274 6.101.822.93.55 1.538 1.538 1.828 2.971.29 1.431.434 4.616.434 9.552v30.392c0 5.18-.144 8.478-.434 9.895-.29 1.417-.944 2.46-1.966 3.13-1.02.672-2.856 1.006-5.506 1.006h-1.828v2.103h52.65l.456-18.236h-2.147c-1.372 4.906-2.888 8.486-4.548 10.74M295.278 31.794v2.102c2.437 0 4.524.32 6.26.96 1.737.64 2.888 1.509 3.452 2.605.563 1.097.845 3.017.845 5.759v37.065l-36.699-48.49h-18.282v2.101c3.322 0 5.461.229 6.422.687.96.456 1.66 1.492 2.102 3.107.442 1.614.663 4.8.663 9.552v15.445h2.239V37.096l43.83 58.089h1.965v-51.28c0-2.65.205-4.532.616-5.643.412-1.113 1.372-2.065 2.88-2.858 1.508-.791 3.572-1.295 6.193-1.508v-2.102h-22.486zM266.46 89.987a5.2 5.2 0 1 1-10.401 0 5.2 5.2 0 0 1 10.4 0"/>
    </g>
</svg>
