<svg id="Calque_1" data-name="Calque 1" xmlns="http://www.w3.org/2000/svg" viewBox="0 0 32 32"><defs><style>.cls-1{fill:#fff;}</style></defs><title>favicon2</title><circle class="cls-1" cx="16" cy="16" r="16"/><path d="M16.85,9.41c1,0,1.44.31,1.44.86,0,.22-3,4.26-5.61,7.65v-5.6a12.58,12.58,0,0,1,.11-2.14.88.88,0,0,1,.41-.61,3.37,3.37,0,0,1,1.31-.16h.6V9H8.61v.46h.3a3.1,3.1,0,0,1,1.33.18.85.85,0,0,1,.4.64,14.07,14.07,0,0,1,.1,2.09v8.16l-1.56,2H21.82l.1-4h-.47a7.5,7.5,0,0,1-1,2.35,2.64,2.64,0,0,1-1.15,1,5.67,5.67,0,0,1-1.85.22H10.38l4.67-6,2.19,2.39H20L16.4,14.29c1.64-2.12,3-3.83,3.13-3.94a4.62,4.62,0,0,1,1.16-.67A3.21,3.21,0,0,1,22,9.41V9h-5.1Z" transform="translate(0 0)"/><circle cx="24.29" cy="22.09" r="0.71"/></svg>