<svg xmlns="http://www.w3.org/2000/svg" width="47" height="39" viewBox="0 0 47 39">
    <g fill="#000" fill-rule="evenodd">
        <path d="M4 38.211S29.743 4.753 30.738 3.965a13.427 13.427 0 0 1 3.276-1.912c1.19-.488 2.376-.74 3.558-.759V0H23.2v1.294c2.7.075 4.05.89 4.05 2.447 0 1.03-25.65 34.47-25.65 34.47"/>
        <path d="M5.99 33.01V9.505c0-3.037-.088-4.997-.267-5.878-.178-.881-.552-1.49-1.124-1.828-.572-.338-1.824-.507-3.756-.507H0V0H18.31v1.293h-1.687c-1.875 0-3.103.156-3.684.465-.582.309-.97.886-1.167 1.73-.197.843-.296 2.85-.296 6.018v18.369M2.945 36.917h21.964c2.344 0 4.084-.206 5.218-.618 1.134-.413 2.212-1.313 3.234-2.7 1.022-1.388 1.955-3.591 2.799-6.61h1.321L37.2 38.211H1.6M46.145 37.011a2 2 0 1 1-4 0 2 2 0 0 1 4 0M21.711 14.786L32.005 26.61h-7.7l-6.444-7.021"/>
    </g>
</svg>
