<svg xmlns="http://www.w3.org/2000/svg" xmlns:xlink="http://www.w3.org/1999/xlink" width="941" height="870" viewBox="0 0 941 870">
    <defs>
        <path id="a" d="M66.61.923c-4.758.013-16.594 3.228-29.345 6.809-1.857.522-3.552.999-4.987 1.392-4.569 1.253-5.915 2.231-7.732 3.72-1.495 1.233-3.358 2.764-10.015 5.508C8.897 20.673 4.028 25.457.071 30.574c2.071-.578 3.993-1.285 4.966-2.327 3.706-3.971 7.359-5.644 10.87-5.076 3.072.531 5.129 2.733 6.283 4.399 2.095-.87 4.443-1.182 6.852-.497.479-.212 1.468-1.904 2.121-3.021 1.963-3.355 4.927-8.422 11.41-10.816 5.465-2.015 7.926-1.517 10.165-.788 1.202.398 1.875.619 4.976-1.189 5.635-3.277 11.461-.814 15.715.991 2.055.873 4.621 1.961 5.473 1.473 4.533-2.582 1.782-10.158 1.754-10.233a2.364 2.364 0 0 1-.146-.894c-.924-.137-1.878-.287-2.867-.443-3.818-.607-7.76-1.23-10.952-1.23h-.081z"/>
        <path id="c" d="M99.393 15.708c-2.883 1.643-6.178.247-9.662-1.228-3.884-1.644-7.902-3.347-11.48-1.257-4.58 2.67-6.552 2.352-8.833 1.597-1.326-.431-2.69-.878-7.055.731-4.894 1.806-7.15 5.669-8.967 8.773-1.706 2.921-3.645 6.236-7.462 5.155-3.164-.905-6.507 1.377-7.902 4.077-.653 1.259-1.812 4.473 1.488 7.125 4.684 3.778 14.111 3.622 23.033-3.978a2.363 2.363 0 0 1 3.331.263 2.349 2.349 0 0 1-.261 3.322c-7.071 6.027-14.611 8.046-20.728 7.347-3.29-.375-6.172-1.539-8.345-3.287-4.102-3.304-5.145-8.269-2.719-12.954.62-1.2 1.506-2.335 2.557-3.34-.658-.936-1.727-2.1-3.135-2.342-2.262-.302-4.852 1.765-6.608 3.642-2.353 2.523-6.42 3.515-10.002 4.386-.646.159-1.613.394-2.58.669-2.6 4.095-4.558 7.877-5.771 10.225-.506.973-.863 1.68-1.077 2.016-.966 1.505-1.484 3.167-2.204 5.467-.699 2.23-1.566 5.003-3.214 8.909-2.147 5.096-1.759 8.796-.668 11.345a3.566 3.566 0 0 0 1.12-.417c1.336-.765 3.185-2.772 4.415-7.967 1.131-4.786 3.328-8.172 6.526-10.069 4.174-2.468 8.463-1.343 8.642-1.292a2.357 2.357 0 0 1 1.659 2.894 2.363 2.363 0 0 1-2.901 1.651c-.006.001-.151-.034-.401-.07-.811-.114-2.725-.229-4.584.87-2.055 1.218-3.513 3.607-4.34 7.101-1.298 5.488-3.539 9.178-6.662 10.973-.296.169-.577.269-.863.395-.535 1.279-1.104 3.271-.762 6.573.823 7.995 9.981 14.276 14.702 15.865 1.913.641 3.157 1.389 4.595 2.255 1.791 1.078 3.822 2.3 7.418 3.549 1.997.69 4.245 1.154 6.435 1.485 4.186-5.244 8.443-6.363 10.926-7.006.552-.144 1.122-.292 1.357-.412a146.47 146.47 0 0 1 3.801-1.856c-6.07-2.174-13.104-6.735-14.725-15.47a2.35 2.35 0 0 1 1.892-2.742 2.353 2.353 0 0 1 2.752 1.889C43.8 89.559 53.201 92.747 57.9 93.634a.054.054 0 0 0-.005-.011c-1.661-3.412-3.937-8.082-1.706-11.75a2.367 2.367 0 0 1 3.248-.789 2.354 2.354 0 0 1 .793 3.238c-.896 1.473.865 5.087 1.917 7.245.362.745.677 1.401.927 2.01 2.919-.185 5.833.364 9.044 1.936 6.6 3.234 15.685-.664 21.981-5.399 4.403-3.308 7.722-3.883 11.06-3.796-6.354-9.474-2.844-15.634-2.669-15.929.656-1.099 2.058-1.455 3.178-.823 1.119.631 1.515 2.059.911 3.189-.116.217-2.7 5.373 5.006 14.145 1.811.403 3.849 1.379 6.16 2.535 4.021 2.014 9.02 4.524 12.631 3.297 1.764-.594 3.194-2.067 4.378-4.497 3.039-6.245 3.903-12.098 4.599-16.804.827-5.609 1.544-10.451 6.39-10.797a2.35 2.35 0 0 1 2.525 2.18 2.348 2.348 0 0 1-2.184 2.516c-1.065.081-1.547 3.341-2.056 6.79-.705 4.76-1.667 11.276-5.023 18.176-1.737 3.571-4.13 5.894-7.111 6.901-5.479 1.846-11.462-1.143-16.268-3.55-2.138-1.066-4.448-2.183-5.455-2.246-.815-.052-1.576-.12-2.303-.184-4.263-.371-6.613-.577-10.924 2.663-9.606 7.218-19.663 9.414-26.907 5.859-3.029-1.482-5.625-1.826-8.606-1.222-.042.012-.081.032-.124.039l-.023.001c-2.936.621-6.255 2.142-10.74 4.403-.689.346-1.434.539-2.297.764-2.188.566-5.301 1.383-8.536 5.518-1.108 2.225-1.574 4.224-1.926 5.794-.655 2.917.62 5.024 1.55 6.562.941 1.555 1.339 2.298.888 3.637-1.318 3.899.522 7.058 4.985 10.947a49.997 49.997 0 0 1-.21-2.99c-.176-4.088.828-5.879 2.061-7.642.753-1.076 1.209-1.727.925-4.267-.407-3.606.655-6.781 3.075-9.185 2.736-2.722 7.128-4.182 11.184-3.72a2.358 2.358 0 0 1 2.081 2.609 2.357 2.357 0 0 1-2.615 2.072c-2.2-.251-5.313.389-7.311 2.376-1.384 1.379-1.963 3.168-1.722 5.329.447 3.98-.526 5.744-1.741 7.483-.75 1.069-1.34 1.918-1.218 4.746.215 4.927.478 6.276 3.192 9.112a719.04 719.04 0 0 0 3.523 2.524c8.354 5.949 12.773 5.718 16.676 5.507 1.856-.103 3.453-.172 5.523.439 6.065 1.804 11.9-.452 17.046-2.472a62.036 62.036 0 0 1 4.865-1.704c2.024-.615 3.51.336 4.632.464l.009.001c9.376 3.468 17.935.542 25.343-.804 5.467-.989 10.555-2.065 15.551-1.405 1.765.234 3.526.807 5.274 1.53.131-.165.252-.339.433-.469.074-.052 7.037-5.279 6.207-11.026-.332-.927-.562-2.09-.818-3.426-.296-1.558-.993-5.202-1.812-5.704-1.019-.459-4.064-.2-6.504.01-2.623.233-5.539.481-8.098.142-2.087 4.826-6.457 8.242-12.519 9.731-.055.015-4.065.984-6.962.653-1.034-.117-1.929-.402-2.446-.957a2.35 2.35 0 0 1 .114-3.329c.721-.68 1.765-.8 2.614-.414 1.525.229 11.426-.117 14.758-7.35a5.839 5.839 0 0 1-1.906-2.699c-.571-1.633-.619-3.928-.454-6.094-3.644 1.906-7.39 2.672-11.444 1.235-7.985-2.822-17.94-5.51-24.097-1.158-.01.008-.025.009-.036.017-.012.008-.016.023-.029.03-7.855 5.159-5.279 12.665-5.147 13.032a2.352 2.352 0 0 1-1.384 3.021 2.36 2.36 0 0 1-3.042-1.376c-1.47-3.891-1.898-12.788 6.972-18.616.02-.013.047-.013.07-.028 7.872-5.442 18.704-2.716 28.267.663 3.813 1.341 7.653-.52 11.796-3.621.068-.045.121-.113.193-.15 1.784-1.348 3.62-2.917 5.538-4.556a159.668 159.668 0 0 1 5.453-4.489c1.87-1.463 3.208-3.03 4.185-4.688.063-.104.108-.244.183-.337 2.109-3.774 2.417-8.16 2.772-13.26.154-2.259.306-4.521.649-6.93 1.4-9.864 7.864-11.708 11.092-11.34a.076.076 0 0 0 .021.003c1.289.148 2.235 1.152 2.099 2.445-.136 1.296-1.281 2.084-2.578 1.948-.198-.02-4.817-.416-5.936 7.466-.318 2.241-.476 4.491-.624 6.669-.352 5.084-.724 10.282-3.256 15.005.015.22.035.455.053.717.456 6.293 1.738 12.22 7.979 12.933 1.651.188 3.489-.125 5.434-.457 3.688-.629 7.878-1.344 12.112 1.168 1.567.926 2.629 2.387 3.071 4.226 1.419 5.897-3.966 14.61-4.584 15.584a2.368 2.368 0 0 1-2.266 1.079 2.34 2.34 0 0 1-.996-.351 2.35 2.35 0 0 1-.735-3.25c1.924-3.039 4.705-8.973 3.984-11.968-.145-.604-.417-.995-.884-1.271-2.745-1.627-5.597-1.14-8.905-.573-2.185.369-4.445.755-6.765.491-8.278-.945-10.801-7.773-11.68-12.96-.47.433-.964.86-1.499 1.279-1.821 1.423-3.58 2.928-5.299 4.398-1.841 1.573-3.655 3.124-5.471 4.518-.505 2.146-.924 6.348-.346 8.004.651 1.86 6.021 1.385 9.569 1.075 3.619-.317 6.741-.595 8.907.408 3 1.382 3.78 5.483 4.47 9.102.211 1.103.448 2.355.663 2.852.039.091.031.185.059.28.028.094.087.171.104.27 1.114 6.735-4.051 12.259-6.658 14.571.11.054.222.108.331.163 5.077 2.55 9.875 4.967 14.514 3.315 9.021-3.191 12.153-.471 13.134.996a17.89 17.89 0 0 0 5.164-.263c6.334-1.243 9.578-6.768 14.143-16.646-.194-.399-.434-.74-.731-.964-.569-.426-1.494-.434-2.736-.024a2.363 2.363 0 0 1-2.982-1.503 2.348 2.348 0 0 1 1.505-2.972c3.511-1.152 5.796-.223 7.087.764l.002.005a847.835 847.835 0 0 1 2.215-4.873c1.248-2.715 2.13-5.263 2.749-7.679-.298.111-.685.39-1.199.93-1.918 2.015-5.187 2.573-8.648 2.178l-.166-.019c-3.607-.412-6.575-1.834-8.076-4.532-.953-1.716-1.628-3.682-2.288-6.224-1.856-7.138-3.578-12.171-8.653-11.581-1.294.149-2.463-.812-2.614-2.104-.148-1.294.79-2.517 2.086-2.667 9.547-1.068 12.109 8.521 13.781 14.957.581 2.243 1.16 4.126 1.82 5.317.752 1.351 2.481 1.872 4.542 2.107l.104.012c1.954.223 3.794.213 4.684-.723 2.168-2.28 4.087-2.415 5.51-2.2.871-6.573-.222-11.804-1.273-15.695-1.134 1.415-2.69 2.585-4.874 2.335a6.195 6.195 0 0 1-1.129-.242c-5.039-1.565-5.137-6.102-5.224-10.101-.069-3.347-.154-7.14-2.437-10.874-5.029-8.219-9.938-8.569-14.137-8.245-2.029.149-3.174-.696-3.779-1.434-1.803-2.198-.799-5.725.266-9.455.501-1.758 1.071-3.752 1.054-4.849-.07-4.99-5.988-12.716-9.646-13.8-.615-.178-.69-.062-.803.1-4.11 6.118-8.426 6.055-8.904 6.029-.035-.004-.065-.023-.102-.028-.02-.002-.04 0-.061.002a.2.2 0 0 1-.069 0l-.375-.062c-13.879-2.189-21.781-1.817-23.461 1.098-1.672 2.894-3.599 4.083-5.304 5.14-2.179 1.355-4.235 2.614-6.404 8.365-1.913 5.074-2.264 9.035-.993 11.213.605 1.038 1.63 1.608 3.027 1.83 1.29.202 2.187 1.275 1.983 2.561-.199 1.25-1.319 1.846-2.568 1.704l-.102-.012c-2.846-.325-5.065-1.628-6.398-3.918-2.058-3.525-1.864-8.4.63-15.012 2.73-7.245 5.836-9.17 8.327-10.717 1.528-.945 2.629-1.63 3.707-3.501 3.66-6.346 16.353-5.275 28.293-3.402l.126.019c.422-.062 2.438-.53 4.726-3.936 1.347-2.006 3.554-2.737 6.07-1.99 5.873 1.735 12.938 11.63 13.033 18.253.027 1.786-.586 3.931-1.235 6.202-.414 1.456-1.063 3.74-1.092 4.879 5.66-.381 12.216.67 18.231 10.514 2.948 4.82 3.049 9.48 3.128 13.226.095 4.376.38 5.229 1.903 5.702.601.165 1.122-.524 2.276-2.859.204-.413.424-.848.664-1.274-.946-4.33-3.131-13.619-5.248-17.66-.984-1.877-2.671-6.208-4.301-10.397-1.578-4.052-3.068-7.881-4.001-9.689-.088-.173-8.801-16.625-13.505-20.624-4.284-7.918-16.872-14.042-21.589-16.12-2.405-.373-8.97-.657-12.4 2.452-.111.615 1.366 2.634 2.075 3.604 1.705 2.332 3.467 4.739 2.874 7.408-.328 1.468-1.309 2.663-2.919 3.546-3.787 2.077-8.063.124-11.773-1.867-3.257-1.743-8.112-2.156-11.61.873-1.22 1.057-2.556 1.814-3.974 2.249-6.347 1.944-8.456 5.413-6.846 11.255.568 2.059.337 3.783-.681 5.126-1.956 2.58-5.963 2.609-10.206 2.637-2.909.024-6.206.047-8.015.987-5.163 2.678-12.349 15.796-10.327 23.99 2.591 10.54-.735 12.708-2.283 13.153-.31.086-.621.109-.922.075a2.365 2.365 0 0 1-2.006-1.69 2.356 2.356 0 0 1 1.1-2.698c.196-.369.88-2.174-.482-7.719-2.641-10.714 6.068-25.834 12.73-29.293 2.817-1.462 6.551-1.488 10.164-1.517 1.935-.014 5.966-.046 6.469-.769.003-.003.11-.264-.105-1.042-2.285-8.289 1.273-14.327 10.011-17.002.782-.239 1.546-.679 2.267-1.304 5.197-4.501 12.255-3.983 16.949-1.462 2.808 1.505 5.631 2.782 7.253 1.887.478-.264.584-.441.586-.441.114-.615-1.365-2.637-2.077-3.607-1.842-2.519-4.926-6.736-1.318-9.995 2.605-2.354 6.109-3.298 9.211-3.625-1.91-1.487-4.712-3.116-9.092-4.61-6.436.728-9.152 4.538-10.61 6.638-.644.923-1.107 1.589-1.976 1.929-3.191 1.251-5.735-.158-7.594-1.188-1.772-.981-2.406-1.209-3.181-.842-.854.405-1.165 1.087-1.774 2.794-.771 2.169-1.832 5.146-5.758 6.993-1.095.514-2.377 1.631-3.733 2.812-3.549 3.092-8.491 7.397-16.466 6.487-2.39-.273-5.053-1.013-8.033-2.399a2.351 2.351 0 0 1-1.145-3.129 2.36 2.36 0 0 1 3.138-1.141c10.132 4.705 14.843.602 19.396-3.368 1.612-1.403 3.131-2.731 4.823-3.523 2.151-1.016 2.67-2.47 3.325-4.315.665-1.863 1.493-4.185 4.195-5.468 3.089-1.46 5.64-.055 7.506.981 1.499.828 2.304 1.211 3.148 1.045l.248-.357c1.02-1.468 2.888-4.132 6.258-6.15-6.147-1.207-10.926-1.203-14.114-1.194a59.38 59.38 0 0 1-1.875-.008c-1.518-.037-4.213-.84-6.819-1.62-3.381-1.011-6.873-2.052-9.479-1.99-.059.002-.144-.007-.205-.007.86 3.09 2.289 11.006-4.235 14.718zM67.876 58.885c1.246-11.749 2.702-12.942 12.273-15.867 5.635-1.723 6.542-3.586 6.645-3.85a2.357 2.357 0 0 1 2.123-2.294 2.36 2.36 0 0 1 2.589 2.108c.091.89.039 5.499-9.973 8.556-7.96 2.434-7.963 2.45-8.962 11.878-1.01 9.526-9.048 9.467-16.816 9.378-8.26-.097-17.63-.14-24.992 8.345-2.365 2.727-5.557 3.346-8.107 3.74-3.39.526-3.915 1.1-4.107 2.846-.143 1.293-1.369 2.75-2.668 2.602l-.007-.001c-1.293-.148-2.166-1.83-2.02-3.122.618-5.571 5.148-6.781 8.108-7.239 2.153-.332 4.014-.621 5.246-2.039 8.794-10.136 20.245-10.007 28.606-9.908.682.008 1.329.013 1.941.013 7.188 0 9.646-.669 10.121-5.146zm7.878 64.993a2.372 2.372 0 0 1 3.338.123 2.358 2.358 0 0 1-.116 3.333c-2.645 2.454-5.129 5.753-5.175 6.576.791 1.664.338 2.744-.18 3.351-1.148 1.35-2.734.901-3.891.57-1.867-.525-3.522-.872-4.99.257a2.375 2.375 0 0 1-1.708.472 2.355 2.355 0 0 1-1.606-.906 2.349 2.349 0 0 1 .433-3.303c2.603-2 5.414-1.895 7.444-1.481.761-3.255 4.124-6.834 6.451-8.992z"/>
        <path id="e" d="M99.393 15.708c-2.883 1.643-6.178.247-9.662-1.228-3.884-1.644-7.902-3.347-11.48-1.257-4.58 2.67-6.552 2.352-8.833 1.597-1.326-.431-2.69-.878-7.055.731-4.894 1.806-7.15 5.669-8.967 8.773-1.706 2.921-3.645 6.236-7.462 5.155-3.164-.905-6.507 1.377-7.902 4.077-.653 1.259-1.812 4.473 1.488 7.125 4.684 3.778 14.111 3.622 23.033-3.978a2.363 2.363 0 0 1 3.331.263 2.349 2.349 0 0 1-.261 3.322c-7.071 6.027-14.611 8.046-20.728 7.347-3.29-.375-6.172-1.539-8.345-3.287-4.102-3.304-5.145-8.269-2.719-12.954.62-1.2 1.506-2.335 2.557-3.34-.658-.936-1.727-2.1-3.135-2.342-2.262-.302-4.852 1.765-6.608 3.642-2.353 2.523-6.42 3.515-10.002 4.386-.646.159-1.613.394-2.58.669-2.6 4.095-4.558 7.877-5.771 10.225-.506.973-.863 1.68-1.077 2.016-.966 1.505-1.484 3.167-2.204 5.467-.699 2.23-1.566 5.003-3.214 8.909-2.147 5.096-1.759 8.796-.668 11.345a3.566 3.566 0 0 0 1.12-.417c1.336-.765 3.185-2.772 4.415-7.967 1.131-4.786 3.328-8.172 6.526-10.069 4.174-2.468 8.463-1.343 8.642-1.292a2.357 2.357 0 0 1 1.659 2.894 2.363 2.363 0 0 1-2.901 1.651c-.006.001-.151-.034-.401-.07-.811-.114-2.725-.229-4.584.87-2.055 1.218-3.513 3.607-4.34 7.101-1.298 5.488-3.539 9.178-6.662 10.973-.296.169-.577.269-.863.395-.535 1.279-1.104 3.271-.762 6.573.823 7.995 9.981 14.276 14.702 15.865 1.913.641 3.157 1.389 4.595 2.255 1.791 1.078 3.822 2.3 7.418 3.549 1.997.69 4.245 1.154 6.435 1.485 4.186-5.244 8.443-6.363 10.926-7.006.552-.144 1.122-.292 1.357-.412a146.47 146.47 0 0 1 3.801-1.856c-6.07-2.174-13.104-6.735-14.725-15.47a2.35 2.35 0 0 1 1.892-2.742 2.353 2.353 0 0 1 2.752 1.889C43.8 89.559 53.201 92.747 57.9 93.634a.054.054 0 0 0-.005-.011c-1.661-3.412-3.937-8.082-1.706-11.75a2.367 2.367 0 0 1 3.248-.789 2.354 2.354 0 0 1 .793 3.238c-.896 1.473.865 5.087 1.917 7.245.362.745.677 1.401.927 2.01 2.919-.185 5.833.364 9.044 1.936 6.6 3.234 15.685-.664 21.981-5.399 4.403-3.308 7.722-3.883 11.06-3.796-6.354-9.474-2.844-15.634-2.669-15.929.656-1.099 2.058-1.455 3.178-.823 1.119.631 1.515 2.059.911 3.189-.116.217-2.7 5.373 5.006 14.145 1.811.403 3.849 1.379 6.16 2.535 4.021 2.014 9.02 4.524 12.631 3.297 1.764-.594 3.194-2.067 4.378-4.497 3.039-6.245 3.903-12.098 4.599-16.804.827-5.609 1.544-10.451 6.39-10.797a2.35 2.35 0 0 1 2.525 2.18 2.348 2.348 0 0 1-2.184 2.516c-1.065.081-1.547 3.341-2.056 6.79-.705 4.76-1.667 11.276-5.023 18.176-1.737 3.571-4.13 5.894-7.111 6.901-5.479 1.846-11.462-1.143-16.268-3.55-2.138-1.066-4.448-2.183-5.455-2.246-.815-.052-1.576-.12-2.303-.184-4.263-.371-6.613-.577-10.924 2.663-9.606 7.218-19.663 9.414-26.907 5.859-3.029-1.482-5.625-1.826-8.606-1.222-.042.012-.081.032-.124.039l-.023.001c-2.936.621-6.255 2.142-10.74 4.403-.689.346-1.434.539-2.297.764-2.188.566-5.301 1.383-8.536 5.518-1.108 2.225-1.574 4.224-1.926 5.794-.655 2.917.62 5.024 1.55 6.562.941 1.555 1.339 2.298.888 3.637-1.318 3.899.522 7.058 4.985 10.947a49.997 49.997 0 0 1-.21-2.99c-.176-4.088.828-5.879 2.061-7.642.753-1.076 1.209-1.727.925-4.267-.407-3.606.655-6.781 3.075-9.185 2.736-2.722 7.128-4.182 11.184-3.72a2.358 2.358 0 0 1 2.081 2.609 2.357 2.357 0 0 1-2.615 2.072c-2.2-.251-5.313.389-7.311 2.376-1.384 1.379-1.963 3.168-1.722 5.329.447 3.98-.526 5.744-1.741 7.483-.75 1.069-1.34 1.918-1.218 4.746.215 4.927.478 6.276 3.192 9.112a719.04 719.04 0 0 0 3.523 2.524c8.354 5.949 12.773 5.718 16.676 5.507 1.856-.103 3.453-.172 5.523.439 6.065 1.804 11.9-.452 17.046-2.472a62.036 62.036 0 0 1 4.865-1.704c2.024-.615 3.51.336 4.632.464l.009.001c9.376 3.468 17.935.542 25.343-.804 5.467-.989 10.555-2.065 15.551-1.405 1.765.234 3.526.807 5.274 1.53.131-.165.252-.339.433-.469.074-.052 7.037-5.279 6.207-11.026-.332-.927-.562-2.09-.818-3.426-.296-1.558-.993-5.202-1.812-5.704-1.019-.459-4.064-.2-6.504.01-2.623.233-5.539.481-8.098.142-2.087 4.826-6.457 8.242-12.519 9.731-.055.015-4.065.984-6.962.653-1.034-.117-1.929-.402-2.446-.957a2.35 2.35 0 0 1 .114-3.329c.721-.68 1.765-.8 2.614-.414 1.525.229 11.426-.117 14.758-7.35a5.839 5.839 0 0 1-1.906-2.699c-.571-1.633-.619-3.928-.454-6.094-3.644 1.906-7.39 2.672-11.444 1.235-7.985-2.822-17.94-5.51-24.097-1.158-.01.008-.025.009-.036.017-.012.008-.016.023-.029.03-7.855 5.159-5.279 12.665-5.147 13.032a2.352 2.352 0 0 1-1.384 3.021 2.36 2.36 0 0 1-3.042-1.376c-1.47-3.891-1.898-12.788 6.972-18.616.02-.013.047-.013.07-.028 7.872-5.442 18.704-2.716 28.267.663 3.813 1.341 7.653-.52 11.796-3.621.068-.045.121-.113.193-.15 1.784-1.348 3.62-2.917 5.538-4.556a159.668 159.668 0 0 1 5.453-4.489c1.87-1.463 3.208-3.03 4.185-4.688.063-.104.108-.244.183-.337 2.109-3.774 2.417-8.16 2.772-13.26.154-2.259.306-4.521.649-6.93 1.4-9.864 7.864-11.708 11.092-11.34a.076.076 0 0 0 .021.003c1.289.148 2.235 1.152 2.099 2.445-.136 1.296-1.281 2.084-2.578 1.948-.198-.02-4.817-.416-5.936 7.466-.318 2.241-.476 4.491-.624 6.669-.352 5.084-.724 10.282-3.256 15.005.015.22.035.455.053.717.456 6.293 1.738 12.22 7.979 12.933 1.651.188 3.489-.125 5.434-.457 3.688-.629 7.878-1.344 12.112 1.168 1.567.926 2.629 2.387 3.071 4.226 1.419 5.897-3.966 14.61-4.584 15.584a2.368 2.368 0 0 1-2.266 1.079 2.34 2.34 0 0 1-.996-.351 2.35 2.35 0 0 1-.735-3.25c1.924-3.039 4.705-8.973 3.984-11.968-.145-.604-.417-.995-.884-1.271-2.745-1.627-5.597-1.14-8.905-.573-2.185.369-4.445.755-6.765.491-8.278-.945-10.801-7.773-11.68-12.96-.47.433-.964.86-1.499 1.279-1.821 1.423-3.58 2.928-5.299 4.398-1.841 1.573-3.655 3.124-5.471 4.518-.505 2.146-.924 6.348-.346 8.004.651 1.86 6.021 1.385 9.569 1.075 3.619-.317 6.741-.595 8.907.408 3 1.382 3.78 5.483 4.47 9.102.211 1.103.448 2.355.663 2.852.039.091.031.185.059.28.028.094.087.171.104.27 1.114 6.735-4.051 12.259-6.658 14.571.11.054.222.108.331.163 5.077 2.55 9.875 4.967 14.514 3.315 9.021-3.191 12.153-.471 13.134.996a17.89 17.89 0 0 0 5.164-.263c6.334-1.243 9.578-6.768 14.143-16.646-.194-.399-.434-.74-.731-.964-.569-.426-1.494-.434-2.736-.024a2.363 2.363 0 0 1-2.982-1.503 2.348 2.348 0 0 1 1.505-2.972c3.511-1.152 5.796-.223 7.087.764l.002.005a847.835 847.835 0 0 1 2.215-4.873c1.248-2.715 2.13-5.263 2.749-7.679-.298.111-.685.39-1.199.93-1.918 2.015-5.187 2.573-8.648 2.178l-.166-.019c-3.607-.412-6.575-1.834-8.076-4.532-.953-1.716-1.628-3.682-2.288-6.224-1.856-7.138-3.578-12.171-8.653-11.581-1.294.149-2.463-.812-2.614-2.104-.148-1.294.79-2.517 2.086-2.667 9.547-1.068 12.109 8.521 13.781 14.957.581 2.243 1.16 4.126 1.82 5.317.752 1.351 2.481 1.872 4.542 2.107l.104.012c1.954.223 3.794.213 4.684-.723 2.168-2.28 4.087-2.415 5.51-2.2.871-6.573-.222-11.804-1.273-15.695-1.134 1.415-2.69 2.585-4.874 2.335a6.195 6.195 0 0 1-1.129-.242c-5.039-1.565-5.137-6.102-5.224-10.101-.069-3.347-.154-7.14-2.437-10.874-5.029-8.219-9.938-8.569-14.137-8.245-2.029.149-3.174-.696-3.779-1.434-1.803-2.198-.799-5.725.266-9.455.501-1.758 1.071-3.752 1.054-4.849-.07-4.99-5.988-12.716-9.646-13.8-.615-.178-.69-.062-.803.1-4.11 6.118-8.426 6.055-8.904 6.029-.035-.004-.065-.023-.102-.028-.02-.002-.04 0-.061.002a.2.2 0 0 1-.069 0l-.375-.062c-13.879-2.189-21.781-1.817-23.461 1.098-1.672 2.894-3.599 4.083-5.304 5.14-2.179 1.355-4.235 2.614-6.404 8.365-1.913 5.074-2.264 9.035-.993 11.213.605 1.038 1.63 1.608 3.027 1.83 1.29.202 2.187 1.275 1.983 2.561-.199 1.25-1.319 1.846-2.568 1.704l-.102-.012c-2.846-.325-5.065-1.628-6.398-3.918-2.058-3.525-1.864-8.4.63-15.012 2.73-7.245 5.836-9.17 8.327-10.717 1.528-.945 2.629-1.63 3.707-3.501 3.66-6.346 16.353-5.275 28.293-3.402l.126.019c.422-.062 2.438-.53 4.726-3.936 1.347-2.006 3.554-2.737 6.07-1.99 5.873 1.735 12.938 11.63 13.033 18.253.027 1.786-.586 3.931-1.235 6.202-.414 1.456-1.063 3.74-1.092 4.879 5.66-.381 12.216.67 18.231 10.514 2.948 4.82 3.049 9.48 3.128 13.226.095 4.376.38 5.229 1.903 5.702.601.165 1.122-.524 2.276-2.859.204-.413.424-.848.664-1.274-.946-4.33-3.131-13.619-5.248-17.66-.984-1.877-2.671-6.208-4.301-10.397-1.578-4.052-3.068-7.881-4.001-9.689-.088-.173-8.801-16.625-13.505-20.624-4.284-7.918-16.872-14.042-21.589-16.12-2.405-.373-8.97-.657-12.4 2.452-.111.615 1.366 2.634 2.075 3.604 1.705 2.332 3.467 4.739 2.874 7.408-.328 1.468-1.309 2.663-2.919 3.546-3.787 2.077-8.063.124-11.773-1.867-3.257-1.743-8.112-2.156-11.61.873-1.22 1.057-2.556 1.814-3.974 2.249-6.347 1.944-8.456 5.413-6.846 11.255.568 2.059.337 3.783-.681 5.126-1.956 2.58-5.963 2.609-10.206 2.637-2.909.024-6.206.047-8.015.987-5.163 2.678-12.349 15.796-10.327 23.99 2.591 10.54-.735 12.708-2.283 13.153-.31.086-.621.109-.922.075a2.365 2.365 0 0 1-2.006-1.69 2.356 2.356 0 0 1 1.1-2.698c.196-.369.88-2.174-.482-7.719-2.641-10.714 6.068-25.834 12.73-29.293 2.817-1.462 6.551-1.488 10.164-1.517 1.935-.014 5.966-.046 6.469-.769.003-.003.11-.264-.105-1.042-2.285-8.289 1.273-14.327 10.011-17.002.782-.239 1.546-.679 2.267-1.304 5.197-4.501 12.255-3.983 16.949-1.462 2.808 1.505 5.631 2.782 7.253 1.887.478-.264.584-.441.586-.441.114-.615-1.365-2.637-2.077-3.607-1.842-2.519-4.926-6.736-1.318-9.995 2.605-2.354 6.109-3.298 9.211-3.625-1.91-1.487-4.712-3.116-9.092-4.61-6.436.728-9.152 4.538-10.61 6.638-.644.923-1.107 1.589-1.976 1.929-3.191 1.251-5.735-.158-7.594-1.188-1.772-.981-2.406-1.209-3.181-.842-.854.405-1.165 1.087-1.774 2.794-.771 2.169-1.832 5.146-5.758 6.993-1.095.514-2.377 1.631-3.733 2.812-3.549 3.092-8.491 7.397-16.466 6.487-2.39-.273-5.053-1.013-8.033-2.399a2.351 2.351 0 0 1-1.145-3.129 2.36 2.36 0 0 1 3.138-1.141c10.132 4.705 14.843.602 19.396-3.368 1.612-1.403 3.131-2.731 4.823-3.523 2.151-1.016 2.67-2.47 3.325-4.315.665-1.863 1.493-4.185 4.195-5.468 3.089-1.46 5.64-.055 7.506.981 1.499.828 2.304 1.211 3.148 1.045l.248-.357c1.02-1.468 2.888-4.132 6.258-6.15-6.147-1.207-10.926-1.203-14.114-1.194a59.38 59.38 0 0 1-1.875-.008c-1.518-.037-4.213-.84-6.819-1.62-3.381-1.011-6.873-2.052-9.479-1.99-.059.002-.144-.007-.205-.007.86 3.09 2.289 11.006-4.235 14.718zM67.876 58.885c1.246-11.749 2.702-12.942 12.273-15.867 5.635-1.723 6.542-3.586 6.645-3.85a2.357 2.357 0 0 1 2.123-2.294 2.36 2.36 0 0 1 2.589 2.108c.091.89.039 5.499-9.973 8.556-7.96 2.434-7.963 2.45-8.962 11.878-1.01 9.526-9.048 9.467-16.816 9.378-8.26-.097-17.63-.14-24.992 8.345-2.365 2.727-5.557 3.346-8.107 3.74-3.39.526-3.915 1.1-4.107 2.846-.143 1.293-1.369 2.75-2.668 2.602l-.007-.001c-1.293-.148-2.166-1.83-2.02-3.122.618-5.571 5.148-6.781 8.108-7.239 2.153-.332 4.014-.621 5.246-2.039 8.794-10.136 20.245-10.007 28.606-9.908.682.008 1.329.013 1.941.013 7.188 0 9.646-.669 10.121-5.146zm7.878 64.993a2.372 2.372 0 0 1 3.338.123 2.358 2.358 0 0 1-.116 3.333c-2.645 2.454-5.129 5.753-5.175 6.576.791 1.664.338 2.744-.18 3.351-1.148 1.35-2.734.901-3.891.57-1.867-.525-3.522-.872-4.99.257a2.375 2.375 0 0 1-1.708.472 2.355 2.355 0 0 1-1.606-.906 2.349 2.349 0 0 1 .433-3.303c2.603-2 5.414-1.895 7.444-1.481.761-3.255 4.124-6.834 6.451-8.992z"/>
        <path id="g" d="M.345 4.604c1.099 2.849 2.751 5.902 5.237 8.245C11.903 18.806 17.041 27.464 20 34.129c2.959 6.664 7.556 20.061 9.956 20.116 2.401.055 10.127 1.374 9.058-2.675-.551-2.084-2.586-12.483-4.275-22.666-4.847-1.919-8.225-4.446-10.014-7.528-.363-.397-1.278-1.264-1.964-1.913-1.749-1.655-3.732-3.532-5.074-5.276-3.314-4.294-2.887-11.491-2.774-12.84l.046-.522C13.942.598 13.004.483 12.075.483 8.952.483 5.932 1.792.345 4.604z"/>
        <path id="i" d="M22.149 1.521c-3.638.657-7.508 1.341-11.642 1.663-3.239.251-6.636.288-10.231-.125 0 0-.527 6.264 1.837 9.331 2.059 2.67 6.715 6.473 7.278 7.518 1.072 1.984 3.15 3.459 5.141 4.506a28.443 28.443 0 0 0 3.101 1.38c.675.254 1.331.42 1.965.492 8.768 1.001 12.217-1.048 15.105-1.363 1.259-.136 3.085.045 5.319.225 3.796.307 8.771.614 14.155-.637C66.44 21.661 68.88 10.397 69.376 6.054c-1.133-.101-3.036.063-6.202 1.186-2.235.792-4.429.949-6.567.705-4.13-.472-8.055-2.442-11.659-4.252C41.823 2.122 38.872.64 36.209.285a22.253 22.253 0 0 0-2.817-.173c-3.392 0-7.108.661-11.243 1.409z"/>
        <path id="k" d="M22.149 1.521c-3.638.657-7.508 1.341-11.642 1.663-3.239.251-6.636.288-10.231-.125 0 0-.527 6.264 1.837 9.331 2.059 2.67 6.715 6.473 7.278 7.518 1.072 1.984 3.15 3.459 5.141 4.506a28.443 28.443 0 0 0 3.101 1.38c.675.254 1.331.42 1.965.492 8.768 1.001 12.217-1.048 15.105-1.363 1.259-.136 3.085.045 5.319.225 3.796.307 8.771.614 14.155-.637C66.44 21.661 68.88 10.397 69.376 6.054c-1.133-.101-3.036.063-6.202 1.186-2.235.792-4.429.949-6.567.705-4.13-.472-8.055-2.442-11.659-4.252C41.823 2.122 38.872.64 36.209.285a22.255 22.255 0 0 0-2.818-.174c-3.392 0-7.107.662-11.242 1.41z"/>
    </defs>
    <g fill="none" fill-rule="evenodd">
        <path fill="#422CB4" d="M0 0h940v870H0z"/>
        <path fill="#281586" d="M480.995 621.195s-7-62 37-116c28.23-34.646 97.169-73.956 48-171-46.304-91.388-152.832-83.227-202-25-15.752 18.653-22.842 64.343-51 99-13 16 5.824 19.767 11 34s-14.764 32.358-7 66c7.764 33.642 93.29 50.071 70 129 0 0 46 14 94-16"/>
        <path fill="#140963" d="M386.995 637.195s40-47 94-16c-14.15 16.758-65 30-94 16"/>
        <path fill="#281586" d="M295 568.542c0-16 46-9 38 45s-32 30-27 8-11-37-11-53M580.039 263.766s32.25 39.559 40.45 21.649c8.202-17.91-58.628-48.287-40.45-21.65M584.995 524.195a9 9 0 0 1-9 9 9 9 0 0 1-9-9 9 9 0 0 1 9-9 9 9 0 0 1 9 9"/>
        <g>
            <g transform="translate(407 279)">
                <mask id="b" fill="#fff">
                    <use xlink:href="#a"/>
                </mask>
                <path fill="#140963" d="M210.556 353.36L-506 271.563l51.123-447.847L261.68-94.487z" mask="url(#b)"/>
            </g>
            <g transform="translate(389 281)">
                <mask id="d" fill="#fff">
                    <use xlink:href="#c"/>
                </mask>
                <path fill="#140963" d="M228.556 351.36L-488 269.563l51.123-447.847L279.68-96.487z" mask="url(#d)"/>
            </g>
            <g transform="translate(389 281)">
                <mask id="f" fill="#fff">
                    <use xlink:href="#e"/>
                </mask>
                <path fill="#140963" d="M225.427 12.253L6.837-12.7l-17.832 156.225 218.589 24.953z" mask="url(#f)"/>
            </g>
            <g transform="translate(479 431)">
                <mask id="h" fill="#fff">
                    <use xlink:href="#g"/>
                </mask>
                <path fill="#140963" d="M47.398 1.92L-1.234-3.631-7.64 52.477l48.632 5.55z" mask="url(#h)"/>
            </g>
            <g transform="translate(498 430)">
                <mask id="j" fill="#fff">
                    <use xlink:href="#i"/>
                </mask>
                <path fill="#140963" d="M119.556 202.36L-597 120.563l51.123-447.847 716.557 81.797z" mask="url(#j)"/>
            </g>
            <g transform="translate(498 430)">
                <mask id="l" fill="#fff">
                    <use xlink:href="#k"/>
                </mask>
                <path fill="#140963" d="M72.371 1.89L-1.151-6.503l-3.712 32.517 73.523 8.393z" mask="url(#l)"/>
            </g>
            <path fill="#140963" d="M485.902 292.722c-.852.488-3.418-.599-5.473-1.473-4.254-1.804-10.08-4.267-15.715-.99-3.101 1.807-3.773 1.587-4.976 1.188-2.24-.728-4.7-1.227-10.164.79-6.484 2.392-9.447 7.46-11.41 10.815-.654 1.117-1.643 2.81-2.122 3.02-2.408-.684-4.757-.372-6.851.498-1.155-1.666-3.211-3.869-6.284-4.399-3.51-.569-7.164 1.105-10.87 5.076-.972 1.042-2.895 1.748-4.966 2.327 3.957-5.118 8.827-9.9 14.46-12.223 6.657-2.743 8.519-4.275 10.016-5.507 1.817-1.49 3.162-2.468 7.732-3.72 1.434-.393 3.129-.87 4.987-1.392 12.75-3.58 24.586-6.797 29.344-6.81 3.206-.01 7.183.62 11.033 1.231.989.156 1.944.306 2.868.443-.007.296.035.6.145.894.028.074 2.78 7.65-1.754 10.232"/>
        </g>
        <g stroke-width="2">
            <path stroke="#FFC600" stroke-linecap="round" d="M457.495 307.695c-9.5-10.5-14 7-24.5 4.5 0 0-23 28-15 42 0 0 5 5 8-4 0 0 4-17 13-15"/>
            <path stroke="#FFC600" stroke-linecap="round" d="M483.995 319.195s-11 11-25 6c0 0-11-8 0-17 0 0 3-2 7 0 0 0 2 1 5-5s9-10 12-10 9 2 13-1c0 0 4-3 8-1s12.154 6.111 15 2c0 0 4-6 0-15 0 0 0-3-9-1 0 0-14-1-17 1s-20 6-26 8-8 5-12 7-12 3-15 7-11 7-7 12M434.995 364.195s0-5 7-5 9-10 18-11c0 0 22-1 23-1s6-2 6-8c0 0 0-10 7-12 0 0 12-1 12-7"/>
            <path stroke="#FFC600" stroke-linecap="round" d="M505.995 310.195s9 7 23-5c0 0 6.233-4.932 7-8 1-4 3-6 9-3 0 0 3.503 3.848 8.25-3.076 4.75-6.924 8.75-1.924 9.75-3.924s-8-5-21-4c-10 0-23-6-23-6M419.31 355.709s-4.315 18.486 12.685 25.486 18 10 21 9c1.243-.414 9-7 13-8s14.316-6.756 19-5c8 3 18 5 29-4 0 0 11-7 24 0 20 13 22-16 23-24s4-5 4-5M527.995 370.195s-8-11-4-17M477.995 364.195s-3 3 3 12M458.995 362.195s0 10 18 15"/>
            <path stroke="#FFC600" stroke-linecap="round" d="M500.995 372.195s4 0 2-13 9-24 13-25 19 2 16-7c0 0-4-10 8-13 0 0 7-8 15-4s14 5 14 0c0 0-8-8-3-12s8 0 11-2-8-11-14-9"/>
            <path stroke="#FFC600" stroke-linecap="round" d="M545.995 358.195s-5 2-6-3 1-16 4-18c0 0 8-5 9-8s6-5 11-4c5 0 19 3 20-1 0 0 3-7 9-2 0 0 8 6 8 13s-3 13-1 14 12 0 16 8c0 0 4 6 5 19 0 0 1 4 5 2 0 0 9-1 2-20-15-41-34-61-51.025-63.924"/>
            <path stroke="#1DD4B6" stroke-linecap="round" d="M452.995 390.195s-2 10 2 13 1 6 2 8 6 11 8 8 1-8 2-10c0 0 3-2 3-9s5-9 9-8M481.995 417.195s5-1 8 0 1-8 5-10M509.995 408.195s-3-14 12-16 21 5 27 3c0 0 18-9 23-18s4-21 4-21-1-11 9-11M554.995 393.195s-1 10 3 11 15-2 17 0 5 11 4 15-6 9-6 9"/>
            <path stroke="#FF9C9C" d="M464.995 420.195s8 13 19 13c0 0 12 3 18 2s17-7 19-6c0 0 11 3 22 1 0 0 21-6 29 0s18 6 24 4 5 3 5 3-4 25-37 21c0 0-9 2-20-1-5-1-10-7-13-10s-6-11-5-16"/>
            <path stroke="#FF9C9C" d="M505.995 435.195s1 8 10 17 16 31 16 31 2 6 10 5 9-2 9-4-4-26-4-26"/>
            <path stroke="#1DD4B6" stroke-linecap="round" d="M557.995 405.195s-3 9-18 10M571.995 378.195s2 14 8 15 18-3 20 1 0 10-4 16M599.995 378.195c1 0 5-3 10 8 0 0 1 18 13 14 0 0 5-4 8-3s6.793-16.945-1.104-20.473M601.357 438.934s12.638.261 17.638-9.739c5-10 13.106-24.807 13.053-31.404"/>
            <path stroke="#A2ACE3" stroke-linecap="round" d="M461.995 258.195a8 8 0 1 1-16.001 0 8 8 0 0 1 16 0z"/>
            <path stroke="#FFC600" stroke-linecap="round" d="M663.995 364.695a5.5 5.5 0 1 1-11 0 5.5 5.5 0 1 1 11 0z"/>
            <path stroke="#A2ACE3" stroke-linecap="round" d="M667.995 445.195h13M673.407 438.195l2.136 14"/>
            <path stroke="#1DD4B6" stroke-linecap="round" d="M377.851 314.888l9.994.354M371.073 296.492l18.544 8.951M389.55 289.686l6.285 9.028"/>
            <path stroke="#A2ACE3" stroke-linecap="round" d="M584.471 253.319l.791 9.968M601.972 244.482l-6.773 19.445M610.845 262.06l-8.25 7.275"/>
            <path stroke="#FF9C9C" d="M613.644 514.283l-12.963-5.287 5.664-13.89 12.964 5.288z"/>
            <path stroke="#1DD4B6" stroke-linecap="round" d="M524.994 198.195v39"/>
            <path stroke="#A2ACE3" stroke-linecap="round" d="M531.994 182.195v22M696.995 354.195l23-12"/>
            <path stroke="#FFC600" stroke-linecap="round" d="M715.995 354.195l18-10"/>
        </g>
        <path fill="#281586" fill-rule="nonzero" d="M667 869.518c17.727-60.511 33.605-101.763 47.635-123.755 47.722-74.801 122.01-107.112 222.865-96.934 3.667.37 3.667 73.933 0 220.69H667zM.082 257c.247-7 66.274-16 73-63 6.726-47-24.586-116 57-122 81.587-6 187-6 209-72H.33C0 176-.082 261.667.082 257z"/>
    </g>
</svg>
